<?xml version="1.0" ?><svg width="512px" height="512px" viewBox="0 0 512 512" data-name="Layer 1" id="Layer_1" xmlns="http://www.w3.org/2000/svg"><defs><style>.cls-1{fill:#eddcb6;}.cls-2{fill:#d8c091;}.cls-3{fill:none;stroke:#493527;stroke-linejoin:round;stroke-width:10px;}</style></defs><title/><path class="cls-1" d="M372.17,180.5c0,12.12-9.08,23.28-24.33,32.17V384H164.17V212.67c-15.25-8.89-24.33-20-24.33-32.17,0-28.37,49.7-51.49,111.85-52.51,1.43,0,2.87,0,4.31,0a243.74,243.74,0,0,1,41.33,3.43C341.09,138.91,372.17,158.07,372.17,180.5Z"/><path class="cls-2" d="M229.94,370.44a63.46,63.46,0,0,1-1.46,13.6H164.17V306.58c.62,0,1.25,0,1.88,0A63.88,63.88,0,0,1,229.94,370.44Z"/><circle class="cls-2" cx="277.09" cy="312.33" r="20.24"/><circle class="cls-2" cx="218.39" cy="205.44" r="28.32"/><path class="cls-2" d="M297.33,131.38a22.95,22.95,0,1,1-45.89,0,23.62,23.62,0,0,1,.25-3.39c1.43,0,2.87,0,4.31,0A243.74,243.74,0,0,1,297.33,131.38Z"/><circle class="cls-2" cx="284.56" cy="244.05" r="12.76"/><path class="cls-2" d="M347.84,241.39V280.2a18.62,18.62,0,0,1-2.25.13,19.54,19.54,0,1,1,0-39.07A18.62,18.62,0,0,1,347.84,241.39Z"/><path class="cls-3" d="M372.16,180.5c0-29-52-52.54-116.16-52.54S139.83,151.48,139.83,180.5c0,12.13,9.09,23.29,24.33,32.18V384.05H347.83V212.68C363.08,203.79,372.16,192.63,372.16,180.5Z"/></svg>